<mxfile host="app.diagrams.net" modified="2023-05-08T12:54:05.321Z" agent="Mozilla/5.0 (Windows NT 10.0; Win64; x64) AppleWebKit/537.36 (KHTML, like Gecko) Chrome/112.0.0.0 Safari/537.36" etag="zyLugW0iSELyk6x2BKzZ" version="21.2.9" type="device">
  <diagram name="Page-1" id="hE9ssMhjJrDO1SPnjomx">
    <mxGraphModel dx="1259" dy="679" grid="1" gridSize="10" guides="1" tooltips="1" connect="1" arrows="1" fold="1" page="1" pageScale="1" pageWidth="850" pageHeight="1100" math="0" shadow="0">
      <root>
        <mxCell id="0" />
        <mxCell id="1" parent="0" />
        <mxCell id="BGifTTCd_8eWKmfKLKCY-4" value="&lt;span style=&quot;background-color: rgb(204, 204, 204);&quot;&gt;Πολιτιστικός &lt;br&gt;Οργανισμός&lt;/span&gt;" style="shape=umlActor;verticalLabelPosition=bottom;verticalAlign=top;html=1;outlineConnect=0;rounded=1;labelBackgroundColor=default;fontStyle=1;labelBorderColor=none;" parent="1" vertex="1">
          <mxGeometry x="59" y="450" width="30" height="60" as="geometry" />
        </mxCell>
        <mxCell id="BGifTTCd_8eWKmfKLKCY-9" value="Οθόνη αναρτημένων από το χειριστή αγγελιών" style="shape=umlBoundary;whiteSpace=wrap;html=1;rounded=1;labelBackgroundColor=none;fontStyle=1;labelBorderColor=none;" parent="1" vertex="1">
          <mxGeometry x="179" y="70" width="100" height="80" as="geometry" />
        </mxCell>
        <mxCell id="BGifTTCd_8eWKmfKLKCY-11" value="" style="endArrow=classic;html=1;rounded=1;exitX=0.5;exitY=0.5;exitDx=0;exitDy=0;exitPerimeter=0;entryX=0;entryY=0.463;entryDx=0;entryDy=0;entryPerimeter=0;labelBackgroundColor=none;fontColor=default;fontStyle=1;labelBorderColor=none;" parent="1" source="BGifTTCd_8eWKmfKLKCY-4" target="BGifTTCd_8eWKmfKLKCY-9" edge="1">
          <mxGeometry width="50" height="50" relative="1" as="geometry">
            <mxPoint x="679" y="350" as="sourcePoint" />
            <mxPoint x="729" y="300" as="targetPoint" />
          </mxGeometry>
        </mxCell>
        <mxCell id="BGifTTCd_8eWKmfKLKCY-17" value="&lt;span style=&quot;font-size: 12px;&quot;&gt;Επιλογή Δημιουργίας&lt;br&gt;Νέας Αγγελίας&lt;br&gt;&lt;/span&gt;" style="edgeLabel;html=1;align=center;verticalAlign=middle;resizable=0;points=[];rounded=1;labelBackgroundColor=default;fontStyle=1;labelBorderColor=none;" parent="BGifTTCd_8eWKmfKLKCY-11" vertex="1" connectable="0">
          <mxGeometry x="0.1346" y="2" relative="1" as="geometry">
            <mxPoint x="-6" y="7" as="offset" />
          </mxGeometry>
        </mxCell>
        <mxCell id="BGifTTCd_8eWKmfKLKCY-12" value="Εμφάνισε" style="ellipse;shape=umlControl;whiteSpace=wrap;html=1;rounded=1;labelBackgroundColor=none;fontStyle=1;labelBorderColor=none;" parent="1" vertex="1">
          <mxGeometry x="414" y="10" width="70" height="80" as="geometry" />
        </mxCell>
        <mxCell id="BGifTTCd_8eWKmfKLKCY-13" value="" style="endArrow=classic;html=1;rounded=1;exitX=0.029;exitY=0.475;exitDx=0;exitDy=0;exitPerimeter=0;labelBackgroundColor=none;fontColor=default;fontStyle=1;labelBorderColor=none;entryX=0.89;entryY=0.138;entryDx=0;entryDy=0;entryPerimeter=0;" parent="1" source="BGifTTCd_8eWKmfKLKCY-12" target="BGifTTCd_8eWKmfKLKCY-9" edge="1">
          <mxGeometry width="50" height="50" relative="1" as="geometry">
            <mxPoint x="819" y="390" as="sourcePoint" />
            <mxPoint x="419" y="110" as="targetPoint" />
          </mxGeometry>
        </mxCell>
        <mxCell id="BGifTTCd_8eWKmfKLKCY-18" value="Εμφάνισε" style="ellipse;shape=umlControl;whiteSpace=wrap;html=1;rounded=1;labelBackgroundColor=none;fontStyle=1;labelBorderColor=none;" parent="1" vertex="1">
          <mxGeometry x="539" y="70" width="70" height="80" as="geometry" />
        </mxCell>
        <mxCell id="BGifTTCd_8eWKmfKLKCY-19" value="" style="endArrow=classic;html=1;rounded=1;labelBackgroundColor=none;fontColor=default;fontStyle=1;labelBorderColor=none;" parent="1" source="BGifTTCd_8eWKmfKLKCY-9" target="BGifTTCd_8eWKmfKLKCY-18" edge="1">
          <mxGeometry width="50" height="50" relative="1" as="geometry">
            <mxPoint x="749" y="360" as="sourcePoint" />
            <mxPoint x="799" y="310" as="targetPoint" />
          </mxGeometry>
        </mxCell>
        <mxCell id="BGifTTCd_8eWKmfKLKCY-20" value="Οθόνη συμπλήρωσης στοιχείων αγγελίας" style="shape=umlBoundary;whiteSpace=wrap;html=1;rounded=1;labelBackgroundColor=none;fontStyle=1;labelBorderColor=none;" parent="1" vertex="1">
          <mxGeometry x="314" y="180" width="100" height="80" as="geometry" />
        </mxCell>
        <mxCell id="BGifTTCd_8eWKmfKLKCY-21" value="" style="endArrow=classic;html=1;rounded=1;exitX=0.086;exitY=0.8;exitDx=0;exitDy=0;exitPerimeter=0;labelBackgroundColor=none;fontColor=default;fontStyle=1;labelBorderColor=none;" parent="1" source="BGifTTCd_8eWKmfKLKCY-18" target="BGifTTCd_8eWKmfKLKCY-20" edge="1">
          <mxGeometry width="50" height="50" relative="1" as="geometry">
            <mxPoint x="689" y="340" as="sourcePoint" />
            <mxPoint x="739" y="290" as="targetPoint" />
          </mxGeometry>
        </mxCell>
        <mxCell id="BGifTTCd_8eWKmfKLKCY-23" value="" style="endArrow=classic;html=1;rounded=1;exitX=0.5;exitY=0.5;exitDx=0;exitDy=0;exitPerimeter=0;entryX=-0.03;entryY=0.513;entryDx=0;entryDy=0;entryPerimeter=0;labelBackgroundColor=none;fontColor=default;fontStyle=1;labelBorderColor=none;" parent="1" source="BGifTTCd_8eWKmfKLKCY-4" target="BGifTTCd_8eWKmfKLKCY-20" edge="1">
          <mxGeometry width="50" height="50" relative="1" as="geometry">
            <mxPoint x="689" y="340" as="sourcePoint" />
            <mxPoint x="739" y="290" as="targetPoint" />
          </mxGeometry>
        </mxCell>
        <mxCell id="BGifTTCd_8eWKmfKLKCY-24" value="&lt;font style=&quot;font-size: 12px;&quot;&gt;Συμπλήρωση Στοιχείων &lt;br&gt;Αγγελίας και Επιβεβαίωση&lt;/font&gt;" style="edgeLabel;html=1;align=center;verticalAlign=middle;resizable=0;points=[];rounded=1;labelBackgroundColor=default;fontStyle=1;labelBorderColor=none;" parent="BGifTTCd_8eWKmfKLKCY-23" vertex="1" connectable="0">
          <mxGeometry x="0.1568" y="2" relative="1" as="geometry">
            <mxPoint x="4" y="-9" as="offset" />
          </mxGeometry>
        </mxCell>
        <mxCell id="BGifTTCd_8eWKmfKLKCY-26" value="Οθόνη επιλογής ετικετών/tags" style="shape=umlBoundary;whiteSpace=wrap;html=1;rounded=1;labelBackgroundColor=none;fontStyle=1;labelBorderColor=none;" parent="1" vertex="1">
          <mxGeometry x="265" y="388" width="105" height="90" as="geometry" />
        </mxCell>
        <mxCell id="BGifTTCd_8eWKmfKLKCY-28" value="" style="endArrow=classic;html=1;rounded=1;labelBackgroundColor=none;fontColor=default;fontStyle=1;labelBorderColor=none;entryX=0.621;entryY=0.179;entryDx=0;entryDy=0;entryPerimeter=0;exitX=0.622;exitY=1;exitDx=0;exitDy=0;exitPerimeter=0;" parent="1" source="BGifTTCd_8eWKmfKLKCY-31" target="zKwYNfhKX217E5rTL9SB-1" edge="1">
          <mxGeometry width="50" height="50" relative="1" as="geometry">
            <mxPoint x="629" y="340" as="sourcePoint" />
            <mxPoint x="589" y="300" as="targetPoint" />
          </mxGeometry>
        </mxCell>
        <mxCell id="BGifTTCd_8eWKmfKLKCY-29" value="" style="endArrow=classic;html=1;rounded=1;entryX=-0.032;entryY=0.5;entryDx=0;entryDy=0;entryPerimeter=0;exitX=0.5;exitY=0.5;exitDx=0;exitDy=0;exitPerimeter=0;labelBackgroundColor=none;fontColor=default;fontStyle=1;labelBorderColor=none;" parent="1" source="BGifTTCd_8eWKmfKLKCY-4" target="BGifTTCd_8eWKmfKLKCY-26" edge="1">
          <mxGeometry width="50" height="50" relative="1" as="geometry">
            <mxPoint x="369" y="550" as="sourcePoint" />
            <mxPoint x="419" y="500" as="targetPoint" />
          </mxGeometry>
        </mxCell>
        <mxCell id="BGifTTCd_8eWKmfKLKCY-30" value="&lt;font style=&quot;font-size: 12px;&quot;&gt;Επιλογή Ετικετών/Tags&lt;br&gt;και Επιβεβαίωση&lt;br&gt;&lt;/font&gt;" style="edgeLabel;html=1;align=center;verticalAlign=middle;resizable=0;points=[];rounded=1;labelBackgroundColor=default;fontStyle=1;labelBorderColor=none;" parent="BGifTTCd_8eWKmfKLKCY-29" vertex="1" connectable="0">
          <mxGeometry x="0.2329" y="1" relative="1" as="geometry">
            <mxPoint as="offset" />
          </mxGeometry>
        </mxCell>
        <mxCell id="BGifTTCd_8eWKmfKLKCY-31" value="Συμπλήρωση απαιτούμενων στοιχείων?" style="ellipse;shape=umlControl;whiteSpace=wrap;html=1;rounded=1;labelBackgroundColor=none;fontStyle=1;labelBorderColor=none;" parent="1" vertex="1">
          <mxGeometry x="484" y="220" width="90" height="100" as="geometry" />
        </mxCell>
        <mxCell id="BGifTTCd_8eWKmfKLKCY-33" value="Οθόνη για ανέβασμα αρχείων" style="shape=umlBoundary;whiteSpace=wrap;html=1;rounded=1;labelBackgroundColor=none;fontStyle=1;labelBorderColor=none;" parent="1" vertex="1">
          <mxGeometry x="284" y="560" width="100" height="80" as="geometry" />
        </mxCell>
        <mxCell id="BGifTTCd_8eWKmfKLKCY-34" value="" style="endArrow=classic;html=1;rounded=1;labelBackgroundColor=none;fontColor=default;fontStyle=1;labelBorderColor=none;exitX=0.934;exitY=0.818;exitDx=0;exitDy=0;exitPerimeter=0;" parent="1" source="BGifTTCd_8eWKmfKLKCY-26" target="BGifTTCd_8eWKmfKLKCY-38" edge="1">
          <mxGeometry width="50" height="50" relative="1" as="geometry">
            <mxPoint x="498.6400000000001" y="490.9000000000001" as="sourcePoint" />
            <mxPoint x="509" y="480" as="targetPoint" />
          </mxGeometry>
        </mxCell>
        <mxCell id="BGifTTCd_8eWKmfKLKCY-36" value="" style="endArrow=classic;html=1;rounded=1;entryX=-0.01;entryY=0.475;entryDx=0;entryDy=0;entryPerimeter=0;exitX=0.5;exitY=0.5;exitDx=0;exitDy=0;exitPerimeter=0;labelBackgroundColor=none;fontColor=default;fontStyle=1;labelBorderColor=none;" parent="1" source="BGifTTCd_8eWKmfKLKCY-4" target="BGifTTCd_8eWKmfKLKCY-33" edge="1">
          <mxGeometry width="50" height="50" relative="1" as="geometry">
            <mxPoint x="79" y="370" as="sourcePoint" />
            <mxPoint x="419" y="380" as="targetPoint" />
          </mxGeometry>
        </mxCell>
        <mxCell id="BGifTTCd_8eWKmfKLKCY-37" value="&lt;font style=&quot;font-size: 12px;&quot;&gt;Ανέβασμα Αρχείων&lt;br&gt;και Επιβεβαίωση&lt;br&gt;&lt;/font&gt;" style="edgeLabel;html=1;align=center;verticalAlign=middle;resizable=0;points=[];rounded=1;labelBackgroundColor=default;fontStyle=1;labelBorderColor=none;" parent="BGifTTCd_8eWKmfKLKCY-36" vertex="1" connectable="0">
          <mxGeometry x="0.0925" y="-2" relative="1" as="geometry">
            <mxPoint as="offset" />
          </mxGeometry>
        </mxCell>
        <mxCell id="BGifTTCd_8eWKmfKLKCY-38" value="Εμφάνισε" style="ellipse;shape=umlControl;whiteSpace=wrap;html=1;rounded=1;labelBackgroundColor=none;fontStyle=1;labelBorderColor=none;" parent="1" vertex="1">
          <mxGeometry x="429" y="450" width="60" height="70" as="geometry" />
        </mxCell>
        <mxCell id="BGifTTCd_8eWKmfKLKCY-39" value="" style="endArrow=classic;html=1;rounded=1;exitX=0.077;exitY=0.784;exitDx=0;exitDy=0;exitPerimeter=0;entryX=0.946;entryY=0.275;entryDx=0;entryDy=0;entryPerimeter=0;labelBackgroundColor=none;fontColor=default;fontStyle=1;labelBorderColor=none;" parent="1" source="BGifTTCd_8eWKmfKLKCY-38" target="BGifTTCd_8eWKmfKLKCY-33" edge="1">
          <mxGeometry width="50" height="50" relative="1" as="geometry">
            <mxPoint x="369" y="440" as="sourcePoint" />
            <mxPoint x="419" y="390" as="targetPoint" />
          </mxGeometry>
        </mxCell>
        <mxCell id="BGifTTCd_8eWKmfKLKCY-40" value="Εμφάνισε&amp;nbsp;" style="ellipse;shape=umlControl;whiteSpace=wrap;html=1;rounded=1;labelBackgroundColor=none;fontStyle=1;labelBorderColor=none;" parent="1" vertex="1">
          <mxGeometry x="370" y="290" width="70" height="80" as="geometry" />
        </mxCell>
        <mxCell id="BGifTTCd_8eWKmfKLKCY-41" value="" style="endArrow=classic;html=1;rounded=1;entryX=0.86;entryY=0.138;entryDx=0;entryDy=0;entryPerimeter=0;labelBackgroundColor=none;fontColor=default;fontStyle=1;labelBorderColor=none;" parent="1" source="BGifTTCd_8eWKmfKLKCY-40" target="BGifTTCd_8eWKmfKLKCY-26" edge="1">
          <mxGeometry width="50" height="50" relative="1" as="geometry">
            <mxPoint x="369" y="440" as="sourcePoint" />
            <mxPoint x="419" y="390" as="targetPoint" />
          </mxGeometry>
        </mxCell>
        <mxCell id="BGifTTCd_8eWKmfKLKCY-42" value="Μέγεθος αρχείων εντός ορίων?" style="ellipse;shape=umlControl;whiteSpace=wrap;html=1;rounded=1;labelBackgroundColor=none;fontStyle=1;labelBorderColor=none;" parent="1" vertex="1">
          <mxGeometry x="494" y="560" width="80" height="90" as="geometry" />
        </mxCell>
        <mxCell id="BGifTTCd_8eWKmfKLKCY-46" value="&lt;font style=&quot;font-size: 12px;&quot;&gt;Αγγελία Εργασίας&lt;/font&gt;" style="ellipse;shape=umlEntity;whiteSpace=wrap;html=1;fontFamily=Helvetica;fontSize=11;rounded=1;labelBackgroundColor=none;fontStyle=1;labelBorderColor=none;" parent="1" vertex="1">
          <mxGeometry x="760" y="730" width="80" height="80" as="geometry" />
        </mxCell>
        <mxCell id="BGifTTCd_8eWKmfKLKCY-50" value="" style="endArrow=classic;html=1;rounded=1;exitX=1.017;exitY=0.533;exitDx=0;exitDy=0;exitPerimeter=0;labelBackgroundColor=none;fontColor=default;fontStyle=1;labelBorderColor=none;entryX=0.071;entryY=0.527;entryDx=0;entryDy=0;entryPerimeter=0;" parent="1" source="BGifTTCd_8eWKmfKLKCY-42" target="vYhw1uU6m6R5nGjjhu3T-6" edge="1">
          <mxGeometry width="50" height="50" relative="1" as="geometry">
            <mxPoint x="697.37" y="600" as="sourcePoint" />
            <mxPoint x="748.1300000000001" y="607.1099999999999" as="targetPoint" />
          </mxGeometry>
        </mxCell>
        <mxCell id="BGifTTCd_8eWKmfKLKCY-51" value="Εμφάνισε" style="ellipse;shape=umlControl;whiteSpace=wrap;html=1;rounded=1;labelBackgroundColor=none;fontStyle=1;labelBorderColor=none;" parent="1" vertex="1">
          <mxGeometry x="479" y="730" width="70" height="80" as="geometry" />
        </mxCell>
        <mxCell id="BGifTTCd_8eWKmfKLKCY-52" value="Οθόνη για Δημοσίευση Αγγελίας" style="shape=umlBoundary;whiteSpace=wrap;html=1;rounded=1;labelBackgroundColor=none;fontStyle=1;labelBorderColor=none;" parent="1" vertex="1">
          <mxGeometry x="199" y="810" width="100" height="80" as="geometry" />
        </mxCell>
        <mxCell id="BGifTTCd_8eWKmfKLKCY-54" value="" style="endArrow=classic;html=1;rounded=1;entryX=1.01;entryY=0.538;entryDx=0;entryDy=0;entryPerimeter=0;labelBackgroundColor=none;fontColor=default;fontStyle=1;labelBorderColor=none;" parent="1" source="BGifTTCd_8eWKmfKLKCY-51" target="BGifTTCd_8eWKmfKLKCY-52" edge="1">
          <mxGeometry width="50" height="50" relative="1" as="geometry">
            <mxPoint x="369" y="750" as="sourcePoint" />
            <mxPoint x="419" y="700" as="targetPoint" />
          </mxGeometry>
        </mxCell>
        <mxCell id="BGifTTCd_8eWKmfKLKCY-55" value="" style="endArrow=classic;html=1;rounded=1;exitX=0.5;exitY=0.5;exitDx=0;exitDy=0;exitPerimeter=0;entryX=-0.02;entryY=0.538;entryDx=0;entryDy=0;entryPerimeter=0;labelBackgroundColor=none;fontColor=default;fontStyle=1;labelBorderColor=none;" parent="1" source="BGifTTCd_8eWKmfKLKCY-4" target="BGifTTCd_8eWKmfKLKCY-52" edge="1">
          <mxGeometry width="50" height="50" relative="1" as="geometry">
            <mxPoint x="369" y="700" as="sourcePoint" />
            <mxPoint x="419" y="650" as="targetPoint" />
          </mxGeometry>
        </mxCell>
        <mxCell id="BGifTTCd_8eWKmfKLKCY-57" value="Επιλέχθηκε Δημοσίευση?" style="ellipse;shape=umlControl;whiteSpace=wrap;html=1;rounded=1;labelBackgroundColor=none;fontStyle=1;labelBorderColor=none;" parent="1" vertex="1">
          <mxGeometry x="400" y="840" width="80" height="90" as="geometry" />
        </mxCell>
        <mxCell id="BGifTTCd_8eWKmfKLKCY-58" value="" style="endArrow=classic;html=1;rounded=1;exitX=0.892;exitY=0.86;exitDx=0;exitDy=0;exitPerimeter=0;entryX=0.027;entryY=0.554;entryDx=0;entryDy=0;entryPerimeter=0;labelBackgroundColor=none;fontColor=default;fontStyle=1;labelBorderColor=none;" parent="1" source="BGifTTCd_8eWKmfKLKCY-52" target="BGifTTCd_8eWKmfKLKCY-57" edge="1">
          <mxGeometry width="50" height="50" relative="1" as="geometry">
            <mxPoint x="369" y="840" as="sourcePoint" />
            <mxPoint x="419" y="790" as="targetPoint" />
          </mxGeometry>
        </mxCell>
        <mxCell id="BGifTTCd_8eWKmfKLKCY-59" value="Κάνε δημόσια" style="ellipse;shape=umlControl;whiteSpace=wrap;html=1;rounded=1;labelBackgroundColor=none;fontStyle=1;labelBorderColor=none;" parent="1" vertex="1">
          <mxGeometry x="619" y="780" width="80" height="90" as="geometry" />
        </mxCell>
        <mxCell id="BGifTTCd_8eWKmfKLKCY-60" value="" style="endArrow=classic;html=1;rounded=1;labelBackgroundColor=none;fontColor=default;fontStyle=1;labelBorderColor=none;" parent="1" source="BGifTTCd_8eWKmfKLKCY-57" target="BGifTTCd_8eWKmfKLKCY-59" edge="1">
          <mxGeometry width="50" height="50" relative="1" as="geometry">
            <mxPoint x="369" y="820" as="sourcePoint" />
            <mxPoint x="419" y="770" as="targetPoint" />
          </mxGeometry>
        </mxCell>
        <mxCell id="BGifTTCd_8eWKmfKLKCY-62" value="&lt;font style=&quot;font-size: 12px;&quot;&gt;Ναι&lt;/font&gt;" style="edgeLabel;html=1;align=center;verticalAlign=middle;resizable=0;points=[];rounded=1;labelBackgroundColor=default;fontStyle=1;labelBorderColor=none;" parent="BGifTTCd_8eWKmfKLKCY-60" vertex="1" connectable="0">
          <mxGeometry x="-0.4909" relative="1" as="geometry">
            <mxPoint x="74" y="-21" as="offset" />
          </mxGeometry>
        </mxCell>
        <mxCell id="BGifTTCd_8eWKmfKLKCY-64" value="Εμφάνισε" style="ellipse;shape=umlControl;whiteSpace=wrap;html=1;rounded=1;labelBackgroundColor=none;fontStyle=1;labelBorderColor=none;" parent="1" vertex="1">
          <mxGeometry x="654" y="900" width="70" height="80" as="geometry" />
        </mxCell>
        <mxCell id="BGifTTCd_8eWKmfKLKCY-65" value="" style="endArrow=classic;html=1;rounded=1;labelBackgroundColor=none;fontColor=default;fontStyle=1;labelBorderColor=none;entryX=0.671;entryY=0.173;entryDx=0;entryDy=0;entryPerimeter=0;" parent="1" source="BGifTTCd_8eWKmfKLKCY-59" target="BGifTTCd_8eWKmfKLKCY-64" edge="1">
          <mxGeometry width="50" height="50" relative="1" as="geometry">
            <mxPoint x="369" y="930" as="sourcePoint" />
            <mxPoint x="419" y="880" as="targetPoint" />
          </mxGeometry>
        </mxCell>
        <mxCell id="BGifTTCd_8eWKmfKLKCY-68" value="Εμφάνισε" style="ellipse;shape=umlControl;whiteSpace=wrap;html=1;rounded=1;labelBackgroundColor=none;fontStyle=1;labelBorderColor=none;strokeColor=#FF0000;strokeWidth=2;" parent="1" vertex="1">
          <mxGeometry x="669" y="140" width="70" height="80" as="geometry" />
        </mxCell>
        <mxCell id="BGifTTCd_8eWKmfKLKCY-69" value="Μήνυμα Ελλειπών Στοιχείων" style="shape=umlBoundary;whiteSpace=wrap;html=1;rounded=1;labelBackgroundColor=none;fontStyle=1;labelBorderColor=none;strokeWidth=2;strokeColor=#FF0000;" parent="1" vertex="1">
          <mxGeometry x="699" y="270" width="100" height="80" as="geometry" />
        </mxCell>
        <mxCell id="BGifTTCd_8eWKmfKLKCY-70" value="" style="endArrow=classic;html=1;rounded=1;entryX=0.407;entryY=1;entryDx=0;entryDy=0;entryPerimeter=0;labelBackgroundColor=none;fontColor=default;fontStyle=1;labelBorderColor=none;strokeColor=#FF0000;strokeWidth=2;" parent="1" source="BGifTTCd_8eWKmfKLKCY-31" target="BGifTTCd_8eWKmfKLKCY-68" edge="1">
          <mxGeometry width="50" height="50" relative="1" as="geometry">
            <mxPoint x="723" y="454" as="sourcePoint" />
            <mxPoint x="419" y="410" as="targetPoint" />
          </mxGeometry>
        </mxCell>
        <mxCell id="BGifTTCd_8eWKmfKLKCY-72" value="&lt;font style=&quot;font-size: 12px;&quot;&gt;Όχι&lt;/font&gt;" style="edgeLabel;html=1;align=center;verticalAlign=middle;resizable=0;points=[];rounded=1;labelBackgroundColor=default;fontStyle=1;labelBorderColor=none;" parent="BGifTTCd_8eWKmfKLKCY-70" vertex="1" connectable="0">
          <mxGeometry x="-0.32" y="2" relative="1" as="geometry">
            <mxPoint as="offset" />
          </mxGeometry>
        </mxCell>
        <mxCell id="BGifTTCd_8eWKmfKLKCY-71" value="" style="endArrow=classic;html=1;rounded=1;labelBackgroundColor=none;fontColor=default;fontStyle=1;labelBorderColor=none;strokeColor=#FF0000;strokeWidth=2;exitX=0.914;exitY=0.925;exitDx=0;exitDy=0;exitPerimeter=0;entryX=0.37;entryY=0.063;entryDx=0;entryDy=0;entryPerimeter=0;" parent="1" source="BGifTTCd_8eWKmfKLKCY-68" target="BGifTTCd_8eWKmfKLKCY-69" edge="1">
          <mxGeometry width="50" height="50" relative="1" as="geometry">
            <mxPoint x="369" y="460" as="sourcePoint" />
            <mxPoint x="739" y="570" as="targetPoint" />
          </mxGeometry>
        </mxCell>
        <mxCell id="BGifTTCd_8eWKmfKLKCY-76" value="Εμφάνισε&amp;nbsp;" style="ellipse;shape=umlControl;whiteSpace=wrap;html=1;rounded=1;labelBackgroundColor=none;fontStyle=1;labelBorderColor=none;strokeColor=#FF0000;strokeWidth=2;" parent="1" vertex="1">
          <mxGeometry x="384" y="667.5" width="70" height="75" as="geometry" />
        </mxCell>
        <mxCell id="BGifTTCd_8eWKmfKLKCY-78" value="" style="endArrow=classic;html=1;rounded=0;hachureGap=4;fontFamily=Architects Daughter;fontSource=https%3A%2F%2Ffonts.googleapis.com%2Fcss%3Ffamily%3DArchitects%2BDaughter;fontSize=16;exitX=0.188;exitY=0.978;exitDx=0;exitDy=0;exitPerimeter=0;strokeColor=#FF0000;strokeWidth=2;entryX=0.968;entryY=0.467;entryDx=0;entryDy=0;entryPerimeter=0;" parent="1" source="BGifTTCd_8eWKmfKLKCY-42" target="BGifTTCd_8eWKmfKLKCY-76" edge="1">
          <mxGeometry width="50" height="50" relative="1" as="geometry">
            <mxPoint x="574" y="666.68" as="sourcePoint" />
            <mxPoint x="453.1000000000001" y="709.9999999999999" as="targetPoint" />
            <Array as="points" />
          </mxGeometry>
        </mxCell>
        <mxCell id="BGifTTCd_8eWKmfKLKCY-80" value="&lt;font face=&quot;Helvetica&quot; style=&quot;font-size: 12px;&quot;&gt;Όχι&lt;/font&gt;" style="edgeLabel;html=1;align=center;verticalAlign=middle;resizable=0;points=[];fontSize=20;fontFamily=Architects Daughter;fontStyle=1" parent="BGifTTCd_8eWKmfKLKCY-78" vertex="1" connectable="0">
          <mxGeometry x="-0.4547" y="3" relative="1" as="geometry">
            <mxPoint x="-23" y="-1" as="offset" />
          </mxGeometry>
        </mxCell>
        <mxCell id="BGifTTCd_8eWKmfKLKCY-84" value="" style="endArrow=classic;html=1;rounded=0;hachureGap=4;fontFamily=Architects Daughter;fontSource=https%3A%2F%2Ffonts.googleapis.com%2Fcss%3Ffamily%3DArchitects%2BDaughter;fontSize=16;exitX=1.025;exitY=0.589;exitDx=0;exitDy=0;exitPerimeter=0;fontStyle=1;strokeColor=#FF0000;strokeWidth=2;entryX=0.071;entryY=0.325;entryDx=0;entryDy=0;entryPerimeter=0;" parent="1" source="BGifTTCd_8eWKmfKLKCY-57" target="BGifTTCd_8eWKmfKLKCY-64" edge="1">
          <mxGeometry width="50" height="50" relative="1" as="geometry">
            <mxPoint x="289" y="950" as="sourcePoint" />
            <mxPoint x="490" y="1042.03" as="targetPoint" />
          </mxGeometry>
        </mxCell>
        <mxCell id="BGifTTCd_8eWKmfKLKCY-85" value="&lt;font face=&quot;Helvetica&quot; style=&quot;font-size: 12px;&quot;&gt;Όχι&lt;/font&gt;" style="edgeLabel;html=1;align=center;verticalAlign=middle;resizable=0;points=[];fontSize=20;fontFamily=Architects Daughter;fontStyle=1" parent="BGifTTCd_8eWKmfKLKCY-84" vertex="1" connectable="0">
          <mxGeometry x="-0.3798" y="-2" relative="1" as="geometry">
            <mxPoint x="6" y="-5" as="offset" />
          </mxGeometry>
        </mxCell>
        <mxCell id="zKwYNfhKX217E5rTL9SB-1" value="Φόρτωσε" style="ellipse;shape=umlControl;whiteSpace=wrap;html=1;rounded=1;labelBackgroundColor=none;fontStyle=1;labelBorderColor=none;" parent="1" vertex="1">
          <mxGeometry x="489" y="360" width="60" height="70" as="geometry" />
        </mxCell>
        <mxCell id="zKwYNfhKX217E5rTL9SB-2" value="&lt;font style=&quot;font-size: 12px;&quot;&gt;Ετικέτες/Tags&lt;/font&gt;" style="ellipse;shape=umlEntity;whiteSpace=wrap;html=1;fontFamily=Helvetica;fontSize=11;rounded=1;labelBackgroundColor=none;fontStyle=1;labelBorderColor=none;" parent="1" vertex="1">
          <mxGeometry x="599" y="355" width="80" height="80" as="geometry" />
        </mxCell>
        <mxCell id="zKwYNfhKX217E5rTL9SB-3" value="" style="endArrow=classic;html=1;rounded=0;hachureGap=4;fontFamily=Architects Daughter;fontSource=https%3A%2F%2Ffonts.googleapis.com%2Fcss%3Ffamily%3DArchitects%2BDaughter;fontSize=16;exitX=1.017;exitY=0.606;exitDx=0;exitDy=0;exitPerimeter=0;" parent="1" source="zKwYNfhKX217E5rTL9SB-1" target="zKwYNfhKX217E5rTL9SB-2" edge="1">
          <mxGeometry width="50" height="50" relative="1" as="geometry">
            <mxPoint x="409" y="600" as="sourcePoint" />
            <mxPoint x="459" y="550" as="targetPoint" />
          </mxGeometry>
        </mxCell>
        <mxCell id="zKwYNfhKX217E5rTL9SB-4" value="" style="endArrow=classic;html=1;rounded=0;hachureGap=4;fontFamily=Architects Daughter;fontSource=https%3A%2F%2Ffonts.googleapis.com%2Fcss%3Ffamily%3DArchitects%2BDaughter;fontSize=16;" parent="1" source="zKwYNfhKX217E5rTL9SB-1" target="BGifTTCd_8eWKmfKLKCY-40" edge="1">
          <mxGeometry width="50" height="50" relative="1" as="geometry">
            <mxPoint x="569" y="340" as="sourcePoint" />
            <mxPoint x="459" y="550" as="targetPoint" />
          </mxGeometry>
        </mxCell>
        <mxCell id="YW2BGpZsonBWHjUEQiTw-1" value="" style="endArrow=classic;html=1;rounded=0;exitX=0.357;exitY=0.121;exitDx=0;exitDy=0;exitPerimeter=0;strokeColor=#FF0000;strokeWidth=2;" parent="1" source="BGifTTCd_8eWKmfKLKCY-76" target="BGifTTCd_8eWKmfKLKCY-33" edge="1">
          <mxGeometry width="50" height="50" relative="1" as="geometry">
            <mxPoint x="409" y="730" as="sourcePoint" />
            <mxPoint x="459" y="680" as="targetPoint" />
            <Array as="points" />
          </mxGeometry>
        </mxCell>
        <mxCell id="7gwhC9eJO-pZnRwxFZpX-5" value="" style="endArrow=classic;html=1;rounded=0;exitX=0.991;exitY=0.77;exitDx=0;exitDy=0;exitPerimeter=0;entryX=-0.037;entryY=0.53;entryDx=0;entryDy=0;entryPerimeter=0;" parent="1" source="BGifTTCd_8eWKmfKLKCY-20" target="BGifTTCd_8eWKmfKLKCY-31" edge="1">
          <mxGeometry width="50" height="50" relative="1" as="geometry">
            <mxPoint x="497.0799999999999" y="275.09000000000003" as="sourcePoint" />
            <mxPoint x="429" y="340" as="targetPoint" />
          </mxGeometry>
        </mxCell>
        <mxCell id="7gwhC9eJO-pZnRwxFZpX-15" value="" style="endArrow=classic;html=1;rounded=0;entryX=0.017;entryY=0.447;entryDx=0;entryDy=0;entryPerimeter=0;" parent="1" source="BGifTTCd_8eWKmfKLKCY-33" target="BGifTTCd_8eWKmfKLKCY-42" edge="1">
          <mxGeometry width="50" height="50" relative="1" as="geometry">
            <mxPoint x="513.1199999999999" y="623.3699999999999" as="sourcePoint" />
            <mxPoint x="489" y="620" as="targetPoint" />
          </mxGeometry>
        </mxCell>
        <mxCell id="7gwhC9eJO-pZnRwxFZpX-16" value="&lt;font style=&quot;font-size: 12px;&quot;&gt;Ναι&lt;/font&gt;" style="edgeLabel;html=1;align=center;verticalAlign=middle;resizable=0;points=[];rounded=1;labelBackgroundColor=default;fontStyle=1;labelBorderColor=none;" parent="1" vertex="1" connectable="0">
          <mxGeometry x="458.9988459911043" y="519.9989453810806" as="geometry">
            <mxPoint x="148" y="86" as="offset" />
          </mxGeometry>
        </mxCell>
        <mxCell id="7gwhC9eJO-pZnRwxFZpX-17" value="Μήνυμα Υπέρβασης Ορίου Μεγέθους Αρχείων" style="shape=umlBoundary;whiteSpace=wrap;html=1;rounded=1;labelBackgroundColor=none;fontStyle=1;labelBorderColor=none;strokeWidth=2;strokeColor=#FF0000;" parent="1" vertex="1">
          <mxGeometry x="179" y="630" width="100" height="80" as="geometry" />
        </mxCell>
        <mxCell id="7gwhC9eJO-pZnRwxFZpX-18" value="" style="endArrow=classic;html=1;rounded=0;entryX=0.74;entryY=0.975;entryDx=0;entryDy=0;entryPerimeter=0;exitX=-0.014;exitY=0.548;exitDx=0;exitDy=0;exitPerimeter=0;strokeColor=#FF0000;strokeWidth=2;" parent="1" source="BGifTTCd_8eWKmfKLKCY-76" target="7gwhC9eJO-pZnRwxFZpX-17" edge="1">
          <mxGeometry width="50" height="50" relative="1" as="geometry">
            <mxPoint x="339" y="690" as="sourcePoint" />
            <mxPoint x="389" y="640" as="targetPoint" />
          </mxGeometry>
        </mxCell>
        <mxCell id="7gwhC9eJO-pZnRwxFZpX-20" value="" style="endArrow=classic;html=1;rounded=0;entryX=0.5;entryY=0;entryDx=0;entryDy=0;" parent="1" source="vYhw1uU6m6R5nGjjhu3T-5" target="BGifTTCd_8eWKmfKLKCY-46" edge="1">
          <mxGeometry width="50" height="50" relative="1" as="geometry">
            <mxPoint x="700" y="710" as="sourcePoint" />
            <mxPoint x="670" y="590" as="targetPoint" />
          </mxGeometry>
        </mxCell>
        <mxCell id="7gwhC9eJO-pZnRwxFZpX-23" value="" style="endArrow=classic;html=1;rounded=0;exitX=0.966;exitY=0.341;exitDx=0;exitDy=0;exitPerimeter=0;entryX=0.044;entryY=0.773;entryDx=0;entryDy=0;entryPerimeter=0;" parent="1" source="BGifTTCd_8eWKmfKLKCY-59" target="BGifTTCd_8eWKmfKLKCY-46" edge="1">
          <mxGeometry width="50" height="50" relative="1" as="geometry">
            <mxPoint x="620" y="800" as="sourcePoint" />
            <mxPoint x="670" y="750" as="targetPoint" />
            <Array as="points" />
          </mxGeometry>
        </mxCell>
        <mxCell id="7gwhC9eJO-pZnRwxFZpX-24" value="" style="endArrow=classic;html=1;rounded=0;exitX=0.071;exitY=0.75;exitDx=0;exitDy=0;exitPerimeter=0;entryX=-0.017;entryY=0.329;entryDx=0;entryDy=0;entryPerimeter=0;" parent="1" source="BGifTTCd_8eWKmfKLKCY-64" target="BGifTTCd_8eWKmfKLKCY-9" edge="1">
          <mxGeometry width="50" height="50" relative="1" as="geometry">
            <mxPoint x="429" y="720" as="sourcePoint" />
            <mxPoint x="479" y="670" as="targetPoint" />
            <Array as="points">
              <mxPoint x="9" y="960" />
              <mxPoint x="9" y="96" />
            </Array>
          </mxGeometry>
        </mxCell>
        <mxCell id="YuymwG62FaaNRpO7CEPj-1" value="" style="endArrow=classic;html=1;rounded=0;exitX=0;exitY=0.563;exitDx=0;exitDy=0;exitPerimeter=0;entryX=1.01;entryY=0.5;entryDx=0;entryDy=0;entryPerimeter=0;strokeColor=#FF0000;strokeWidth=2;" parent="1" source="BGifTTCd_8eWKmfKLKCY-68" target="BGifTTCd_8eWKmfKLKCY-20" edge="1">
          <mxGeometry width="50" height="50" relative="1" as="geometry">
            <mxPoint x="400" y="380" as="sourcePoint" />
            <mxPoint x="450" y="330" as="targetPoint" />
          </mxGeometry>
        </mxCell>
        <mxCell id="6vx0P-0F2dG6ilhO7YN7-8" value="&lt;span style=&quot;font-size: 12px;&quot;&gt;Αρχεία του χειριστή&lt;/span&gt;" style="ellipse;shape=umlEntity;whiteSpace=wrap;html=1;fontFamily=Helvetica;fontSize=11;rounded=1;labelBackgroundColor=none;fontStyle=1;labelBorderColor=none;" parent="1" vertex="1">
          <mxGeometry x="630" y="460" width="80" height="80" as="geometry" />
        </mxCell>
        <mxCell id="6vx0P-0F2dG6ilhO7YN7-9" value="" style="endArrow=classic;html=1;rounded=0;exitX=0.631;exitY=0.099;exitDx=0;exitDy=0;exitPerimeter=0;entryX=-0.024;entryY=0.68;entryDx=0;entryDy=0;entryPerimeter=0;" parent="1" source="BGifTTCd_8eWKmfKLKCY-42" target="6vx0P-0F2dG6ilhO7YN7-8" edge="1">
          <mxGeometry width="50" height="50" relative="1" as="geometry">
            <mxPoint x="740" y="630" as="sourcePoint" />
            <mxPoint x="790" y="580" as="targetPoint" />
          </mxGeometry>
        </mxCell>
        <mxCell id="dnv_swDc5qfeTq2Af8nI-3" value="" style="endArrow=classic;html=1;rounded=0;entryX=0.921;entryY=0.35;entryDx=0;entryDy=0;entryPerimeter=0;exitX=0.072;exitY=0.836;exitDx=0;exitDy=0;exitPerimeter=0;" parent="1" source="vYhw1uU6m6R5nGjjhu3T-5" target="BGifTTCd_8eWKmfKLKCY-51" edge="1">
          <mxGeometry width="50" height="50" relative="1" as="geometry">
            <mxPoint x="609.9100000000001" y="709.4095" as="sourcePoint" />
            <mxPoint x="670" y="610" as="targetPoint" />
          </mxGeometry>
        </mxCell>
        <mxCell id="vYhw1uU6m6R5nGjjhu3T-1" value="&lt;font style=&quot;font-size: 12px;&quot;&gt;&lt;b&gt;Επιλογή Δημοσίευσης/Αποθήκευσης&lt;br&gt;&lt;/b&gt;&lt;/font&gt;" style="edgeLabel;html=1;align=center;verticalAlign=middle;resizable=0;points=[];" vertex="1" connectable="0" parent="1">
          <mxGeometry x="169.99652301424803" y="759.9994889032897" as="geometry" />
        </mxCell>
        <mxCell id="vYhw1uU6m6R5nGjjhu3T-3" value="" style="endArrow=classic;html=1;rounded=0;exitX=0.202;exitY=0.917;exitDx=0;exitDy=0;exitPerimeter=0;" edge="1" parent="1" target="vYhw1uU6m6R5nGjjhu3T-5">
          <mxGeometry width="50" height="50" relative="1" as="geometry">
            <mxPoint x="767.1700000000001" y="637.53" as="sourcePoint" />
            <mxPoint x="690" y="660" as="targetPoint" />
          </mxGeometry>
        </mxCell>
        <mxCell id="vYhw1uU6m6R5nGjjhu3T-4" value="" style="endArrow=classic;html=1;rounded=0;entryX=0.5;entryY=1;entryDx=0;entryDy=0;exitX=0.161;exitY=0.206;exitDx=0;exitDy=0;exitPerimeter=0;" edge="1" parent="1" source="vYhw1uU6m6R5nGjjhu3T-6" target="6vx0P-0F2dG6ilhO7YN7-8">
          <mxGeometry width="50" height="50" relative="1" as="geometry">
            <mxPoint x="770" y="580" as="sourcePoint" />
            <mxPoint x="450" y="620" as="targetPoint" />
          </mxGeometry>
        </mxCell>
        <mxCell id="vYhw1uU6m6R5nGjjhu3T-5" value="Καταχώρησε" style="ellipse;shape=umlControl;whiteSpace=wrap;html=1;rounded=1;labelBackgroundColor=none;fontStyle=1;labelBorderColor=none;" vertex="1" parent="1">
          <mxGeometry x="616.5" y="630" width="85" height="90" as="geometry" />
        </mxCell>
        <mxCell id="vYhw1uU6m6R5nGjjhu3T-6" value="Αποθήκευσε" style="ellipse;shape=umlControl;whiteSpace=wrap;html=1;fontStyle=1;" vertex="1" parent="1">
          <mxGeometry x="755.0000000000001" y="565.25" width="70" height="79.5" as="geometry" />
        </mxCell>
      </root>
    </mxGraphModel>
  </diagram>
</mxfile>
